<?xml version="1.0" encoding="UTF-8"?>
<svg xmlns="http://www.w3.org/2000/svg" viewBox="0 0 2000 2000">
  <defs>
    <style>
      .cls-1 {
        fill: none;
        stroke: #612c1c;
        stroke-miterlimit: 10;
        stroke-width: 5px;
      }

      .cls-2 {
        fill: #612c1c;
      }
    </style>
  </defs>
  <g id="ETOILE_1" data-name="ETOILE 1">
    <path class="cls-2" d="m1927,930.69l40.46,11.48-40.46,11.48c-17.4,4.94-31,18.54-35.94,35.94l-11.48,40.46-11.48-40.46c-4.94-17.4-18.54-31-35.94-35.94l-40.46-11.48,40.46-11.48c17.4-4.94,31-18.54,35.94-35.94l11.48-40.46,11.48,40.46c4.94,17.4,18.54,31,35.94,35.94Z"/>
  </g>
  <g id="ETOILE_2" data-name="ETOILE 2">
    <path class="cls-2" d="m1790.19,765.24l30.15,8.55-30.15,8.55c-12.97,3.68-23.1,13.81-26.78,26.78l-8.55,30.15-8.55-30.15c-3.68-12.97-13.81-23.1-26.78-26.78l-30.15-8.55,30.15-8.55c12.97-3.68,23.1-13.81,26.78-26.78l8.55-30.15,8.55,30.15c3.68,12.97,13.81,23.1,26.78,26.78Z"/>
  </g>
  <g id="ETOILE_3" data-name="ETOILE 3">
    <path class="cls-2" d="m1922.26,709.03l36.41,10.33-36.41,10.33c-15.66,4.44-27.9,16.68-32.35,32.35l-10.33,36.41-10.33-36.41c-4.44-15.66-16.68-27.9-32.35-32.35l-36.41-10.33,36.41-10.33c15.66-4.44,27.9-16.68,32.35-32.35l10.33-36.41,10.33,36.41c4.44,15.66,16.68,27.9,32.35,32.35Z"/>
  </g>
  <g id="CERCLE">
    <ellipse class="cls-1" cx="985.84" cy="1021.86" rx="894.61" ry="295.17" transform="translate(-132.26 146.69) rotate(-7.98)"/>
  </g>
</svg>