<?xml version="1.0" encoding="UTF-8"?>
<svg id="Layer_2" data-name="Layer 2" xmlns="http://www.w3.org/2000/svg" viewBox="0 0 2000 2000">
  <defs>
    <style>
      .cls-1 {
        fill: #602c1b;
      }

      .cls-2 {
        fill: #fdfaf0;
      }
    </style>
  </defs>
  <g>
    <rect class="cls-2" x="227.27" y="318.16" width="1545.46" height="1383.63"/>
    <path class="cls-1" d="m1772.73,1741.82H227.27c-22.11,0-40.04-17.92-40.04-40.04V318.16c0-22.11,17.92-40.04,40.04-40.04h1545.45c22.11,0,40.04,17.92,40.04,40.04v1383.63c0,22.11-17.92,40.04-40.04,40.04Zm-1505.42-80.07h1465.38V358.19H267.31v1303.56Z"/>
  </g>
  <path class="cls-1" d="m1525.94,1426.27H474.06c-22.11,0-40.04-17.92-40.04-40.04v-735.15c0-22.11,17.92-40.04,40.04-40.04h1051.88c22.11,0,40.04,17.92,40.04,40.04v735.15c0,22.11-17.92,40.04-40.04,40.04Zm-1011.85-80.07h971.81v-517.1h-971.81v517.1Z"/>
</svg>