<?xml version="1.0" encoding="UTF-8"?>
<svg id="Layer_2" data-name="Layer 2" xmlns="http://www.w3.org/2000/svg" viewBox="0 0 2000 2000">
  <defs>
    <style>
      .cls-1 {
        fill: #602c1b;
      }

      .cls-2 {
        fill: #fdfaf0;
      }
    </style>
  </defs>
  <g>
    <rect class="cls-2" x="229.81" y="327.36" width="1544.32" height="1382.61"/>
    <path class="cls-1" d="m1774.13,1749.97H229.81c-22.1,0-40.01-17.91-40.01-40.01V327.36c0-22.1,17.91-40.01,40.01-40.01h1544.32c22.1,0,40.01,17.91,40.01,40.01v1382.6c0,22.1-17.91,40.01-40.01,40.01Zm-1504.32-80.01h1464.31V367.36H269.81v1302.59Z"/>
  </g>
  <path class="cls-1" d="m1527.53,1434.64H476.42c-22.1,0-40.01-17.91-40.01-40.01s17.91-40.01,40.01-40.01h1051.12c22.1,0,40.01,17.91,40.01,40.01s-17.91,40.01-40.01,40.01Z"/>
</svg>