<?xml version="1.0" encoding="UTF-8"?>
<svg id="Layer_2" data-name="Layer 2" xmlns="http://www.w3.org/2000/svg" viewBox="0 0 2000 2000">
  <defs>
    <style>
      .cls-1 {
        fill: #602c1b;
      }

      .cls-2 {
        fill: #fdfaf0;
      }
    </style>
  </defs>
  <g>
    <rect class="cls-2" x="227.27" y="310.37" width="1545.47" height="1383.64"/>
    <path class="cls-1" d="m1772.73,1734.04H227.27c-22.11,0-40.04-17.92-40.04-40.04V310.38c0-22.11,17.92-40.04,40.04-40.04h1545.46c22.11,0,40.04,17.92,40.04,40.04v1383.63c0,22.11-17.92,40.04-40.04,40.04Zm-1505.43-80.07h1465.39V350.41H267.31v1303.56Z"/>
  </g>
  <path class="cls-1" d="m474.08,1418.48c-12.76,0-25.32-6.1-33.08-17.44-12.48-18.25-7.8-43.16,10.45-55.64l1051.89-719.55c18.24-12.5,43.16-7.81,55.64,10.44,12.48,18.25,7.8,43.16-10.45,55.65L496.65,1411.49c-6.91,4.72-14.78,6.99-22.57,6.99Z"/>
  <path class="cls-1" d="m1525.92,1418.48c-7.79,0-15.65-2.27-22.57-6.99L451.45,691.94c-18.25-12.49-22.93-37.4-10.45-55.65,12.48-18.27,37.39-22.94,55.64-10.44l1051.89,719.55c18.25,12.48,22.93,37.39,10.45,55.64-7.76,11.34-20.32,17.44-33.08,17.44Z"/>
</svg>