<?xml version="1.0" encoding="UTF-8"?>
<svg id="Layer_2" data-name="Layer 2" xmlns="http://www.w3.org/2000/svg" viewBox="0 0 500 500">
  <defs>
    <style>
      .cls-1 {
        fill: #612c1c;
      }
    </style>
  </defs>
  <path class="cls-1" d="m390.61,297.52c-4.09-8.01-22.67,11.19-37.12,27.35-9.64,10.79-14.67,30.92-15.83,36.04-8.63-8.7-18.79-19.57-29.03-31.87,6.48-3.39,27.23-14.95,33.65-27.09,7.1-13.42,22.47-38.93,16.28-42.99-7.52-4.94-24.56,10.67-37.45,25.61-7.89,9.15-13.89,32.66-15.73,40.53-10.21-12.57-20.34-26.5-28.92-41.07,5-3.24,20.97-15.02,28.33-37.25,2.82-8.5,13.21-11.91,11-21.64-1.99-8.77-17.62-1.91-29.16,15.41-4.49,6.74-5.22,17.27-7.33,24.94-1.82,6.62-3.86,11.76-5.1,14.63-.86-1.52-1.71-3.05-2.53-4.59-3.72-6.93-11.54-18.72-21.15-32.44,3.38-1.88,11.5-7.82,21.04-24.79,7.09-12.61,21.83-15.73,16.02-31.18-2.14-5.7-11.79-.3-24.52,17.18-8.81,12.1-13.76,28.4-15.43,34.66-6.22-8.82-13.04-18.29-19.9-27.69,2.79-2.24,9.53-8.81,15.21-23.44,2.31-5.95,8.08-5.53,13.04-15.45,4.46-8.93,5-22.14-.14-26.65-3.82-3.35-10.85,8.79-18,21.12-6.97,12.02-11.53,33.76-12.85,40.66-10.89-14.89-21.68-29.38-30.08-40.63,3.33-2.84,16.58-15.1,22.01-34.56,3.88-13.91,4.18-34.71,2.7-35.11-7.51-2-16.12,16.54-21.6,31.09-4.84,12.86-5.62,29.58-5.74,35.06-1.29-1.73-2.51-3.36-3.65-4.88-4.56-6.09-7.85-10.49-8.87-11.92-1.53-2.14-3.24-4.24-4.95-6.18-.23-2.57-1.91-17.52-10.95-26.82-10.43-10.73-20.13-22.25-26.08-18.96-6.49,3.59-1.7,15.98,10.49,31.71,9.34,12.06,22.83,15.64,25.05,16.16,1.53,1.77,3.05,3.65,4.41,5.54,1.04,1.45,4.16,5.63,8.9,11.96.33.43.66.88,1,1.33-3.38-1.2-10.61-2.32-25.89-.84-10.43,1.01-14.88-4.11-25.23-3.26-11.7.96-28.63,11.86-28.63,18.57,0,8.37,16.02,4.4,32.46,2.92,6.61-.6,20.07,1.76,30.33-.65,10.77-2.53,19-9.69,20.9-11.46,7.25,9.69,16.48,22.08,26.09,35.15-5.89-.96-26.29-3.73-42.63.85-14.62,4.09-28.6,11.83-26.65,18.97,1.45,5.33,26.7,2.54,45.67.85,6.88-.61,23.49-11.99,27.78-14.99,6.84,9.35,13.76,18.88,20.17,27.9-4.11.12-16.6,1.07-37.32,7.79-12.22,3.96-33.55,18.36-29.91,24.8,4.43,7.83,17.57.28,29.91-7.51,5.24-3.31,14.74-.38,25.65-7.24,8.09-5.08,13.32-11.13,14.97-13.18,10.99,15.57,20.1,29.13,24.18,36.74,1.19,2.23,2.43,4.44,3.71,6.64-2.9.26-9.51.96-16.35,2.55-7.5,1.74-14.61,4.87-22.96,6.8-17.72,4.11-31.51,6.52-31.04,16.72.41,8.99,12.54,11.79,30.33,3.26,12.71-6.09,38.48-23.96,41.81-26.28,7.75,13.01,16.69,25.49,25.8,36.93-3.82-.7-22-2.77-41.39,15.99-9.88,9.56-33.9,22.15-20.74,34.44,9.26,8.65,23.15-9.32,29.67-20.27,2.54-4.27,14.22-7.62,22.68-13.18,7.51-4.94,12.33-11.78,13.08-12.89,10.58,12.96,21.21,24.46,30.31,33.71-4.83.93-20.98,4.44-35.67,12.35-13.37,7.2-37.6,14.56-31.89,29.06,3.69,9.35,20.13-2.06,44.22-14.95,11.87-6.35,24.28-18.97,27.46-22.3,12.29,12.23,20.91,19.6,21.13,19.79l1.62-1.91c-.22-.19-8.66-7.4-20.73-19.4,4.05-2.3,17.41-10.25,29.42-21.6,10.49-9.92,27.35-31.59,20.68-44.65Z"/>
</svg>