<?xml version="1.0" encoding="UTF-8"?>
<svg id="Layer_2" data-name="Layer 2" xmlns="http://www.w3.org/2000/svg" viewBox="0 0 500 500">
  <defs>
    <style>
      .cls-1 {
        fill: #612c1c;
      }
    </style>
  </defs>
  <path class="cls-1" d="m192.19,160.34c6.99-7.37-17.48-29.67-22.11-21.54-4.63,8.13,15.12,28.91,22.11,21.54Z"/>
  <path class="cls-1" d="m180.36,210.01c6.99-7.37-15.22-27.62-17.08-22.99-2.77,6.9,10.08,30.36,17.08,22.99Z"/>
  <path class="cls-1" d="m128.51,216.86c-6.14,4.2,19.05,25.75,24.19,16.99,5.1-8.69-19.09-20.48-24.19-16.99Z"/>
  <path class="cls-1" d="m205.42,246.89c-.19-13.42-32.82-8.46-32.73-4.82.31,12.92,32.87,14.98,32.73,4.82Z"/>
  <path class="cls-1" d="m212.79,213.36c7.9-.3,9.21-25.17-2.65-26.19-9.64-.83-7.51,26.58,2.65,26.19Z"/>
  <path class="cls-1" d="m221.1,132.94c-6.61,1.89-11.91,26.08,3.02,31.78,9.49,3.63,5.97-34.35-3.02-31.78Z"/>
  <path class="cls-1" d="m285.93,152.34c7.88,6.41,16.41-30.76,7.06-31.13-6.87-.27-19.46,21.05-7.06,31.13Z"/>
  <path class="cls-1" d="m239.45,237.58c7.78,6.54,36.84-26.6,24.74-28.49-6.8-1.06-39.31,16.25-24.74,28.49Z"/>
  <path class="cls-1" d="m291.7,201.58c4.9,6.79,24.37-27.4,13.59-27.35-6.88.03-24.61,12.12-13.59,27.35Z"/>
  <path class="cls-1" d="m257.01,161.89c-4.91,0-18.43,16.68-7.77,26.56,7.45,6.91,12.9-26.56,7.77-26.56Z"/>
  <path class="cls-1" d="m324.05,241.04c7.7,3.39,31.63-19.24,25.47-20.7-16.35-3.87-40.42,14.11-25.47,20.7Z"/>
  <path class="cls-1" d="m385.23,244.53c-8.9-4.66-18.1,3-14.73,12.59,2.25,6.4,20.68-9.47,14.73-12.59Z"/>
  <path class="cls-1" d="m387.78,283.93c-.57-4.11-21.83-21.83-25.8-1.4-1.29,6.66,26.71,8.06,25.8,1.4Z"/>
  <path class="cls-1" d="m332.26,288.63c.15-4.14-28.42-18.28-25.8-1.4,1.38,8.89,25.48,10.45,25.8,1.4Z"/>
  <path class="cls-1" d="m331.62,320.78c-5.63,9.6,11.28,27.85,18.91,22.96,7.52-4.82-10.26-37.69-18.91-22.96Z"/>
  <path class="cls-1" d="m281.34,305.19c-10.73,2.95,10.98,24.09,15.95,22.64,1.73-.51.28-27.1-15.95-22.64Z"/>
  <path class="cls-1" d="m242.18,264.08c-10.72,7.45,14.45,22.84,23.9,16.5,4.26-2.86-13.07-24.03-23.9-16.5Z"/>
  <path class="cls-1" d="m239.57,298.81c-13.04.64-.43,24.66,5.91,21.97,4.73-2.01,6.49-22.58-5.91-21.97Z"/>
  <path class="cls-1" d="m217.14,264.73c-13.04-5.45-27.21,19.77-19.46,26.76,10.03,9.05,31.46-21.75,19.46-26.76Z"/>
  <path class="cls-1" d="m154.44,283.5c.71,10.02,32.31,4.35,31.33-5.72-1.43-14.62-32.07-4.69-31.33,5.72Z"/>
  <path class="cls-1" d="m112.21,267.01c-.57,8.03,24.5,7.13,24.47-1.13-.05-14.69-24.01-5.44-24.47,1.13Z"/>
  <path class="cls-1" d="m264.9,346.86c-13.32,3.4,2.69,33.35,7.65,31.89,1.73-.51,4.97-35.11-7.65-31.89Z"/>
  <path class="cls-1" d="m219.03,335.42c-13.74.63-5.03,25.01,1.23,24.57,2.83-.2,11.15-25.14-1.23-24.57Z"/>
  <path class="cls-1" d="m174.47,311c-9.28-1.7-15.8,19.2-10.91,21.12,8.56,3.35,27.55-18.07,10.91-21.12Z"/>
  <path class="cls-1" d="m274.01,258.33c4.36,4.33,28.03-7.42,25.33-10.45-11.62-13-35.82,0-25.33,10.45Z"/>
  <path class="cls-1" d="m356.79,168.65c-6.88.05-37.7,25.89-21.15,31.13,11.54,3.66,26.92-31.17,21.15-31.13Z"/>
</svg>