<?xml version="1.0" encoding="UTF-8"?>
<svg id="Layer_2" data-name="Layer 2" xmlns="http://www.w3.org/2000/svg" viewBox="0 0 500 500">
  <defs>
    <style>
      .cls-1 {
        fill: #622c1c;
      }
    </style>
  </defs>
  <path class="cls-1" d="m274.51,307.52c-31.9,9.53-.41,73.58,27.95,61.25,19.89-8.65,3.7-70.7-27.95-61.25Z"/>
  <path class="cls-1" d="m365.77,296.83c-9.45,8.22,4.71,45.82,22.61,32.88,16.85-12.18-13.15-41.11-22.61-32.88Z"/>
  <path class="cls-1" d="m311.18,241.75c14.57,19.34,49.65,2.06,35.68-24.25-13.98-26.31-54.26-.41-35.68,24.25Z"/>
  <path class="cls-1" d="m223.13,237.23c-17.68,12.78,1.64,44.81,20.96,31.24,21.89-15.37-7.07-41.29-20.96-31.24Z"/>
  <path class="cls-1" d="m174.63,301.77c-17.26,8.63,4.11,37.82,13.98,32.06,9.87-5.75,2.55-40.32-13.98-32.06Z"/>
  <path class="cls-1" d="m107.21,220.79c-4.52,11.92,25.9,22.21,30.01,14.19,7.3-14.25-22.9-32.93-30.01-14.19Z"/>
  <path class="cls-1" d="m300.41,147.21c-1.23-8.63-36.17-25.07-37.41,5.75-.5,12.51,38.64,2.88,37.41-5.75Z"/>
  <path class="cls-1" d="m197.23,138.58c-7.4,4.11-.41,30.42,11.92,25.9,10.87-3.99-4.52-30.01-11.92-25.9Z"/>
  <path class="cls-1" d="m135.99,144.33c7.52-17.3-26.81-17.78-29.23-9.3s21.01,28.21,29.23,9.3Z"/>
</svg>