<svg xmlns="http://www.w3.org/2000/svg" width="45.315" height="41.649" viewBox="0 0 45.315 41.649">
  <path id="Icon_awesome-linkedin" data-name="Icon awesome-linkedin" d="M42.078,2.25H3.227A3.124,3.124,0,0,0,0,5.253V40.9a3.124,3.124,0,0,0,3.227,3H42.078a3.133,3.133,0,0,0,3.237-3V5.253A3.133,3.133,0,0,0,42.078,2.25ZM13.7,37.949H6.979V18.073h6.726V37.949ZM10.337,15.358a3.748,3.748,0,0,1-3.894-3.579A3.748,3.748,0,0,1,10.337,8.2a3.755,3.755,0,0,1,3.894,3.579,3.742,3.742,0,0,1-3.894,3.579ZM38.872,37.949H32.155V28.281c0-2.306-.051-5.271-3.49-5.271-3.5,0-4.036,2.51-4.036,5.1v9.836H17.914V18.073h6.443v2.715h.091A7.208,7.208,0,0,1,30.81,17.58c6.8,0,8.062,4.118,8.062,9.473Z" transform="translate(0 -2.25)" fill="#f1a492"/>
</svg>
