<svg xmlns="http://www.w3.org/2000/svg" width="41.649" height="41.649" viewBox="0 0 41.649 41.649">
  <path id="Icon_awesome-phone-square-alt" data-name="Icon awesome-phone-square-alt" d="M37.187,2.25H4.462A4.462,4.462,0,0,0,0,6.712V39.437A4.462,4.462,0,0,0,4.462,43.9H37.187a4.462,4.462,0,0,0,4.462-4.462V6.712A4.462,4.462,0,0,0,37.187,2.25ZM35.663,30.825l-1.395,6.043a1.4,1.4,0,0,1-1.358,1.081A26.963,26.963,0,0,1,5.95,10.989,1.46,1.46,0,0,1,7.031,9.631l6.043-1.395a1.7,1.7,0,0,1,.313-.036,1.513,1.513,0,0,1,1.282.845l2.789,6.508a1.664,1.664,0,0,1,.112.549,1.58,1.58,0,0,1-.511,1.079l-3.523,2.882a21.56,21.56,0,0,0,10.3,10.3l2.882-3.523a1.58,1.58,0,0,1,1.079-.511,1.659,1.659,0,0,1,.549.112l6.508,2.789a1.511,1.511,0,0,1,.845,1.282A1.618,1.618,0,0,1,35.663,30.825Z" transform="translate(0 -2.25)" fill="#f1a492"/>
</svg>
