<?xml version="1.0" encoding="UTF-8"?>
<svg id="Layer_2" data-name="Layer 2" xmlns="http://www.w3.org/2000/svg" viewBox="0 0 500 500">
  <defs>
    <style>
      .cls-1 {
        fill: #fea593;
      }
    </style>
  </defs>
  <path class="cls-1" d="m179.05,179.89c-3.66,6.19,67.32,59.67,75.41,32.36,6.75-22.79-71.75-38.55-75.41-32.36Z"/>
  <path class="cls-1" d="m328.75,205.87c8.67-9.7-18.29-54.11-37.71-37.74-22.33,18.83,28.98,47.5,37.71,37.74Z"/>
  <path class="cls-1" d="m233.92,141.06c-7.69-28.18-70.58,3.18-68.1,16.04,2.47,12.77,74.85,8.72,68.1-16.04Z"/>
  <path class="cls-1" d="m152.04,209.44c-10-8.32-44.12,42.35-25.89,48.68,20.26,7.03,38.55-38.15,25.89-48.68Z"/>
  <path class="cls-1" d="m198.38,249.87c15.98-7.58-15.94-55.43-29.39-48.52-6.54,3.36,2.59,61.23,29.39,48.52Z"/>
  <path class="cls-1" d="m134.59,285.13c-17.23,12.78,23.96,61.61,38.58,54.03,11.55-5.99-16.95-70.07-38.58-54.03Z"/>
  <path class="cls-1" d="m200.06,269.09c-15.95,1.03-16.44,66.93,0,67.91,9.85.59,26.26-69.6,0-67.91Z"/>
  <path class="cls-1" d="m258.26,284.71c-14.62-6.75-44.02,44.74-33.77,52.29,7.94,5.85,57.82-41.18,33.77-52.29Z"/>
  <path class="cls-1" d="m330.42,233.69c0-16.09-65.78-25.19-65.7,7.12.04,15.62,65.7,10.87,65.7-7.12Z"/>
  <path class="cls-1" d="m353.23,258.86c-11.99-10.73-57.83,21.28-48.96,38.51,14.36,27.93,60.36-28.31,48.96-38.51Z"/>
  <path class="cls-1" d="m375.6,282.56c-15.91-2.42-32.5,45.2-20.57,51.11,17.48,8.66,30.7-49.57,20.57-51.11Z"/>
  <path class="cls-1" d="m236.74,350.89c-2.37,16.97,58.31,33.56,54.45.09-2.53-21.95-52.61-13.27-54.45-.09Z"/>
</svg>