<?xml version="1.0" encoding="UTF-8"?>
<svg id="Layer_1" data-name="Layer 1" xmlns="http://www.w3.org/2000/svg" viewBox="0 0 2000 2000">
  <defs>
    <style>
      .cls-1 {
        font-family: Nicholas, Nicholas;
        font-size: 235.99px;
      }

      .cls-1, .cls-2 {
        fill: #612c1c;
      }
    </style>
  </defs>
  <path class="cls-2" d="m1114.8,972.22c-42.14-11.96-75.06-44.88-87.02-87.02l-27.78-97.97-27.78,97.97c-11.96,42.14-44.88,75.06-87.02,87.02l-97.97,27.78,97.97,27.78c42.14,11.96,75.06,44.88,87.02,87.02l27.78,97.97,27.78-97.97c11.96-42.14,44.88-75.06,87.02-87.02l97.97-27.78-97.97-27.78h0Z"/>
  <text class="cls-1" transform="translate(484.6 873.47) rotate(-69.82)"><tspan x="0" y="0">P</tspan></text>
  <text class="cls-1" transform="translate(518.46 769.53) rotate(-55.45)"><tspan x="0" y="0">O</tspan></text>
  <text class="cls-1" transform="translate(598.94 649.38) rotate(-40.64)"><tspan x="0" y="0">R</tspan></text>
  <text class="cls-1" transform="translate(709.5 557.2) rotate(-28.02)"><tspan x="0" y="0">T</tspan></text>
  <text class="cls-1" transform="translate(824.62 500.36) rotate(-14.19)"><tspan x="0" y="0">F</tspan></text>
  <text class="cls-1" transform="translate(919.26 471.4) rotate(.93)"><tspan x="0" y="0">O</tspan></text>
  <text class="cls-1" transform="translate(1068.52 472.79) rotate(14.66)"><tspan x="0" y="0">L</tspan></text>
  <text class="cls-1" transform="translate(1191.75 507.73) rotate(24.65)"><tspan x="0" y="0">I</tspan></text>
  <text class="cls-1" transform="translate(1234.28 520.31) rotate(35.01)"><tspan x="0" y="0">O</tspan></text>
  <text class="cls-1" transform="translate(1360.92 614.77) rotate(45.93)"><tspan x="0" y="0"> </tspan></text>
  <text class="cls-1" transform="translate(1394.5 649.23) rotate(51.13)"><tspan x="0" y="0"> </tspan></text>
  <text class="cls-1" transform="translate(1427.27 680.7) rotate(61.86)"><tspan x="0" y="0">D</tspan></text>
  <text class="cls-1" transform="translate(1494.97 806.11) rotate(75.82)"><tspan x="0" y="0">E</tspan></text>
  <text class="cls-1" transform="translate(1526.12 925.69) rotate(89.07)"><tspan x="0" y="0">S</tspan></text>
  <text class="cls-1" transform="translate(1526.33 1044.13) rotate(98.05)"><tspan x="0" y="0">I</tspan></text>
  <text class="cls-1" transform="translate(1524.84 1087.47) rotate(107.06)"><tspan x="0" y="0">G</tspan></text>
  <text class="cls-1" transform="translate(1488.82 1214.11) rotate(122.48)"><tspan x="0" y="0">N</tspan></text>
</svg>