<?xml version="1.0" encoding="UTF-8"?>
<svg id="Layer_1" data-name="Layer 1" xmlns="http://www.w3.org/2000/svg" viewBox="0 0 2000 2000">
  <defs>
    <style>
      .cls-1 {
        fill: #612c1c;
      }
    </style>
  </defs>
  <path class="cls-1" d="m1090.01,840.18l19.54,68.91,19.54-68.91c8.41-29.64,31.57-52.8,61.21-61.21l68.91-19.54-68.91-19.54h0c-29.64-8.41-52.8-31.57-61.21-61.21l-19.54-68.91-19.54,68.91c-8.41,29.64-31.57,52.8-61.21,61.21l-68.91,19.54,68.91,19.54c29.64,8.41,52.8,31.57,61.21,61.21Z"/>
  <path class="cls-1" d="m920.52,1007.39c-29.64-8.41-52.8-31.57-61.21-61.21l-19.54-68.91-19.54,68.91c-8.41,29.64-31.57,52.8-61.21,61.21l-68.91,19.54,68.91,19.54c29.64,8.41,52.8,31.57,61.21,61.21l19.54,68.91,19.54-68.91c8.41-29.64,31.57-52.8,61.21-61.21l68.91-19.54-68.91-19.54h0Z"/>
  <path class="cls-1" d="m1240.98,1221.03h0c-29.64-8.41-52.8-31.57-61.21-61.21l-19.54-68.91-19.54,68.91c-8.41,29.64-31.57,52.8-61.21,61.21l-68.91,19.54,68.91,19.54c29.64,8.41,52.8,31.57,61.21,61.21l19.54,68.91,19.54-68.91c8.41-29.64,31.57-52.8,61.21-61.21l68.91-19.54-68.91-19.54Z"/>
</svg>